<svg width="35" height="35" viewBox="0 0 35 35" fill="none" xmlns="http://www.w3.org/2000/svg">
<rect x="5" y="20" width="5" height="5" fill="#044B87"/>
<rect x="5" y="15" width="5" height="5" fill="#044B87"/>
<rect x="5" y="10" width="5" height="5" fill="#044B87"/>
<rect x="5" y="5" width="5" height="5" fill="#044B87"/>
<rect x="10" y="10" width="5" height="5" fill="#044B87"/>
<rect x="15" y="10" width="5" height="5" fill="black"/>
<rect x="5" width="20" height="5" fill="black"/>
<rect x="5" y="30" width="20" height="5" fill="black"/>
<rect x="10" y="15" width="5" height="5" fill="black"/>
<rect x="15" y="25" width="5" height="5" fill="black"/>
<rect x="5" y="25" width="5" height="5" fill="black"/>
<rect width="5" height="35" fill="black"/>
<rect x="25" width="10" height="35" fill="black"/>
<rect x="10" y="5" width="5" height="5" fill="#044B87"/>
<rect x="15" y="5" width="5" height="5" fill="#044B87"/>
<rect x="20" y="5" width="5" height="5" fill="#044B87"/>
<rect x="15" y="15" width="5" height="5" fill="#277DB3"/>
<rect x="15" y="20" width="5" height="5" fill="#65BDE4"/>
<rect x="10" y="25" width="5" height="5" fill="#7CD3EF"/>
<rect x="20" y="25" width="5" height="5" fill="#7AD1EF"/>
<rect x="20" y="15" width="5" height="5" fill="#65BDE4"/>
<rect x="20" y="20" width="5" height="5" fill="#E0F1F7"/>
<rect x="20" y="10" width="5" height="5" fill="#277DB3"/>
<rect x="10" y="20" width="5" height="5" fill="#277DB3"/>
</svg>
