<svg width="35" height="35" viewBox="0 0 35 35" fill="none" xmlns="http://www.w3.org/2000/svg">
<rect width="35" height="35" rx="5" fill="black"/>
<path d="M29.6653 21.4491L22.3918 30.58C21.9455 31.1399 21.222 31.1402 20.7757 30.58C20.3297 30.0198 20.3298 29.1115 20.7757 28.5512L26.0983 21.8694L7 21.8694C6.44772 21.8694 6 21.4217 6 20.8694V20C6 19.4477 6.44772 19 7 19L26.0983 19H28.8486C29.1531 19 29.441 19.1388 29.6307 19.377L29.6653 19.4203C30.1116 19.9806 30.1115 20.8888 29.6653 21.4491Z" fill="#2AB7F6"/>
<path d="M6.33471 14.5509L13.6082 5.42001C14.0545 4.86014 14.7781 4.85986 15.2243 5.42001C15.6703 5.98017 15.6702 6.88853 15.2243 7.44878L9.90169 14.1306H29C29.5523 14.1306 30 14.5783 30 15.1306V16C30 16.5523 29.5523 17 29 17H9.90169H7.15144C6.84693 17 6.559 16.8612 6.36927 16.6231L6.33471 16.5797C5.88842 16.0194 5.88848 15.1112 6.33471 14.5509Z" fill="#2AB7F6"/>
</svg>
